<svg id="visual" viewBox="0 0 960 540" width="960" height="540" xmlns="http://www.w3.org/2000/svg" xmlns:xlink="http://www.w3.org/1999/xlink" version="1.1"><rect x="0" y="0" width="960" height="540" fill="#001220"></rect><path d="M0 333L22.8 338.8C45.7 344.7 91.3 356.3 137 353.8C182.7 351.3 228.3 334.7 274 330.7C319.7 326.7 365.3 335.3 411.2 344.8C457 354.3 503 364.7 548.8 364C594.7 363.3 640.3 351.7 686 353.5C731.7 355.3 777.3 370.7 823 377C868.7 383.3 914.3 380.7 937.2 379.3L960 378L960 541L937.2 541C914.3 541 868.7 541 823 541C777.3 541 731.7 541 686 541C640.3 541 594.7 541 548.8 541C503 541 457 541 411.2 541C365.3 541 319.7 541 274 541C228.3 541 182.7 541 137 541C91.3 541 45.7 541 22.8 541L0 541Z" fill="#05e5fc"></path><path d="M0 409L22.8 408.7C45.7 408.3 91.3 407.7 137 399.2C182.7 390.7 228.3 374.3 274 368.7C319.7 363 365.3 368 411.2 371C457 374 503 375 548.8 377.3C594.7 379.7 640.3 383.3 686 389.2C731.7 395 777.3 403 823 405.3C868.7 407.7 914.3 404.3 937.2 402.7L960 401L960 541L937.2 541C914.3 541 868.7 541 823 541C777.3 541 731.7 541 686 541C640.3 541 594.7 541 548.8 541C503 541 457 541 411.2 541C365.3 541 319.7 541 274 541C228.3 541 182.7 541 137 541C91.3 541 45.7 541 22.8 541L0 541Z" fill="#00ccf6"></path><path d="M0 403L22.8 402.2C45.7 401.3 91.3 399.7 137 398.5C182.7 397.3 228.3 396.7 274 398.2C319.7 399.7 365.3 403.3 411.2 409.8C457 416.3 503 425.7 548.8 434C594.7 442.3 640.3 449.7 686 444.7C731.7 439.7 777.3 422.3 823 421C868.7 419.7 914.3 434.3 937.2 441.7L960 449L960 541L937.2 541C914.3 541 868.7 541 823 541C777.3 541 731.7 541 686 541C640.3 541 594.7 541 548.8 541C503 541 457 541 411.2 541C365.3 541 319.7 541 274 541C228.3 541 182.7 541 137 541C91.3 541 45.7 541 22.8 541L0 541Z" fill="#00b2ea"></path><path d="M0 471L22.8 469.2C45.7 467.3 91.3 463.7 137 459.5C182.7 455.3 228.3 450.7 274 453C319.7 455.3 365.3 464.7 411.2 467.5C457 470.3 503 466.7 548.8 463.3C594.7 460 640.3 457 686 457.5C731.7 458 777.3 462 823 466.2C868.7 470.3 914.3 474.7 937.2 476.8L960 479L960 541L937.2 541C914.3 541 868.7 541 823 541C777.3 541 731.7 541 686 541C640.3 541 594.7 541 548.8 541C503 541 457 541 411.2 541C365.3 541 319.7 541 274 541C228.3 541 182.7 541 137 541C91.3 541 45.7 541 22.8 541L0 541Z" fill="#0498da"></path><path d="M0 502L22.8 502.8C45.7 503.7 91.3 505.3 137 505.2C182.7 505 228.3 503 274 497.5C319.7 492 365.3 483 411.2 482C457 481 503 488 548.8 493.8C594.7 499.7 640.3 504.3 686 503.7C731.7 503 777.3 497 823 491.5C868.7 486 914.3 481 937.2 478.5L960 476L960 541L937.2 541C914.3 541 868.7 541 823 541C777.3 541 731.7 541 686 541C640.3 541 594.7 541 548.8 541C503 541 457 541 411.2 541C365.3 541 319.7 541 274 541C228.3 541 182.7 541 137 541C91.3 541 45.7 541 22.8 541L0 541Z" fill="#247dc7"></path></svg>