<svg xmlns="http://www.w3.org/2000/svg" version="1.1" xmlns:xlink="http://www.w3.org/1999/xlink" xmlns:svgjs="http://svgjs.dev/svgjs" viewBox="0 0 600 600"><path d="M148.03665161132812,177.48690795898438C152.4869130452474,143.3246053059896,142.5392608642578,117.93193689982097,166.09947204589844,99.73822021484375C189.65968322753906,81.54450352986653,250.52357228597006,72.25130971272786,289.3979187011719,68.3246078491211C328.2722651163737,64.39790598551433,365.8376973470052,70.54973729451497,399.3455505371094,76.17800903320312C432.85340372721356,81.80628077189128,468.3246205647786,80.10470835367839,490.4450378417969,102.09423828125C512.5654551188151,124.08376820882161,525.6544443766276,169.63351440429688,532.0680541992188,208.1151885986328C538.4816640218099,246.59686279296875,541.2303619384766,292.27747853597003,528.9266967773438,332.9842834472656C516.6230316162109,373.6910883585612,487.9581044514974,425.6544443766276,458.2460632324219,452.35601806640625C428.5340220133464,479.0575917561849,386.9109929402669,484.94765218098956,350.6544494628906,493.1937255859375C314.39790598551434,501.43979899088544,271.9895248413086,500.78533935546875,240.70680236816406,501.83245849609375C209.42407989501953,502.87957763671875,181.41361236572266,513.3507843017578,162.95811462402344,499.4764404296875C144.50261688232422,485.6020965576172,133.90051778157553,451.04712931315106,129.97381591796875,418.5863952636719C126.04711405436198,386.1256612141927,136.3874308268229,344.89528401692706,139.3979034423828,304.7120361328125C142.40837605794272,264.52878824869794,143.58639017740884,211.64921061197916,148.03665161132812,177.48690795898438C152.4869130452474,143.3246053059896,142.5392608642578,117.93193689982097,166.09947204589844,99.73822021484375" fill="#0498da" stroke-width="22" stroke="hsl(194,100%,45%)"></path></svg>